<svg xmlns="http://www.w3.org/2000/svg" xmlns:xlink="http://www.w3.org/1999/xlink" width="1920" zoomAndPan="magnify" viewBox="0 0 1440 809.999993" height="1080" preserveAspectRatio="xMidYMid meet" version="1.0"><defs><g/><clipPath id="c802bdbff3"><path d="M 693.4375 338.046875 L 849.378906 338.046875 L 849.378906 493.988281 L 693.4375 493.988281 Z M 693.4375 338.046875 " clip-rule="nonzero"/></clipPath><clipPath id="c20c618ed8"><path d="M 771.410156 338.046875 C 728.347656 338.046875 693.4375 372.957031 693.4375 416.015625 C 693.4375 459.078125 728.347656 493.988281 771.410156 493.988281 C 814.472656 493.988281 849.378906 459.078125 849.378906 416.015625 C 849.378906 372.957031 814.472656 338.046875 771.410156 338.046875 Z M 771.410156 338.046875 " clip-rule="nonzero"/></clipPath><clipPath id="78142c3fdf"><path d="M 483 365 L 551 365 L 551 390 L 483 390 Z M 483 365 " clip-rule="nonzero"/></clipPath><clipPath id="15f5054f63"><path d="M 486.09375 326.722656 L 552.414062 330.34375 L 549.082031 391.375 L 482.761719 387.753906 Z M 486.09375 326.722656 " clip-rule="nonzero"/></clipPath><clipPath id="6c8a19c660"><path d="M 486.09375 326.722656 L 552.414062 330.34375 L 549.082031 391.375 L 482.761719 387.753906 Z M 486.09375 326.722656 " clip-rule="nonzero"/></clipPath><clipPath id="0aff4d5239"><path d="M 484.042969 364.941406 L 550.449219 368.566406 L 549.210938 391.246094 L 482.804688 387.617188 Z M 484.042969 364.941406 " clip-rule="nonzero"/></clipPath><clipPath id="0619f7ffca"><path d="M 484.042969 364.941406 L 550.417969 368.5625 L 549.179688 391.230469 L 482.804688 387.605469 Z M 484.042969 364.941406 " clip-rule="nonzero"/></clipPath><clipPath id="f1e14a351d"><path d="M 492 367 L 541 367 L 541 382 L 492 382 Z M 492 367 " clip-rule="nonzero"/></clipPath><clipPath id="5cbec1c773"><path d="M 486.09375 326.722656 L 552.414062 330.34375 L 549.082031 391.375 L 482.761719 387.753906 Z M 486.09375 326.722656 " clip-rule="nonzero"/></clipPath><clipPath id="1a11fb4817"><path d="M 486.09375 326.722656 L 552.414062 330.34375 L 549.082031 391.375 L 482.761719 387.753906 Z M 486.09375 326.722656 " clip-rule="nonzero"/></clipPath><clipPath id="c1036cd0a6"><path d="M 532 371 L 548 371 L 548 387 L 532 387 Z M 532 371 " clip-rule="nonzero"/></clipPath><clipPath id="c685eda3d8"><path d="M 486.09375 326.722656 L 552.414062 330.34375 L 549.082031 391.375 L 482.761719 387.753906 Z M 486.09375 326.722656 " clip-rule="nonzero"/></clipPath><clipPath id="23d5ea242c"><path d="M 486.09375 326.722656 L 552.414062 330.34375 L 549.082031 391.375 L 482.761719 387.753906 Z M 486.09375 326.722656 " clip-rule="nonzero"/></clipPath><clipPath id="17fc5e0ecf"><path d="M 486 367 L 500 367 L 500 385 L 486 385 Z M 486 367 " clip-rule="nonzero"/></clipPath><clipPath id="0048895f91"><path d="M 486.09375 326.722656 L 552.414062 330.34375 L 549.082031 391.375 L 482.761719 387.753906 Z M 486.09375 326.722656 " clip-rule="nonzero"/></clipPath><clipPath id="36035229dd"><path d="M 486.09375 326.722656 L 552.414062 330.34375 L 549.082031 391.375 L 482.761719 387.753906 Z M 486.09375 326.722656 " clip-rule="nonzero"/></clipPath><clipPath id="68694318bd"><path d="M 494 328 L 543 328 L 543 374 L 494 374 Z M 494 328 " clip-rule="nonzero"/></clipPath><clipPath id="30c7a4ade0"><path d="M 486.09375 326.722656 L 552.414062 330.34375 L 549.082031 391.375 L 482.761719 387.753906 Z M 486.09375 326.722656 " clip-rule="nonzero"/></clipPath><clipPath id="420b3acd01"><path d="M 486.09375 326.722656 L 552.414062 330.34375 L 549.082031 391.375 L 482.761719 387.753906 Z M 486.09375 326.722656 " clip-rule="nonzero"/></clipPath><clipPath id="3519bf26ee"><path d="M 494 366 L 495 366 L 495 368 L 494 368 Z M 494 366 " clip-rule="nonzero"/></clipPath><clipPath id="9261eca4eb"><path d="M 486.09375 326.722656 L 552.414062 330.34375 L 549.082031 391.375 L 482.761719 387.753906 Z M 486.09375 326.722656 " clip-rule="nonzero"/></clipPath><clipPath id="ca13db76a2"><path d="M 486.09375 326.722656 L 552.414062 330.34375 L 549.082031 391.375 L 482.761719 387.753906 Z M 486.09375 326.722656 " clip-rule="nonzero"/></clipPath></defs><rect x="-144" width="1728" fill="#ffffff" y="-80.999999" height="971.999992" fill-opacity="1"/><rect x="-144" width="1728" fill="#000000" y="-80.999999" height="971.999992" fill-opacity="1"/><g fill="#ffffff" fill-opacity="1"><g transform="translate(67.675987, 493.485447)"><g><path d="M 101.28125 -118.015625 L 101.28125 -29.5 C 101.28125 -19.8125 98.050781 -12.472656 91.59375 -7.484375 C 85.132812 -2.492188 76.695312 0 66.28125 0 L 4.84375 0 L 4.84375 -157.21875 L 57.46875 -157.21875 C 67.15625 -157.21875 75.15625 -156.148438 81.46875 -154.015625 C 87.78125 -151.890625 92.660156 -147.960938 96.109375 -142.234375 C 99.554688 -136.515625 101.28125 -128.441406 101.28125 -118.015625 Z M 60.765625 -38.09375 L 60.765625 -119.125 C 60.765625 -122.0625 59.921875 -124.738281 58.234375 -127.15625 C 56.546875 -129.582031 54.382812 -130.796875 51.75 -130.796875 L 45.359375 -130.796875 L 45.359375 -26.421875 L 51.75 -26.421875 C 54.382812 -26.421875 56.546875 -27.59375 58.234375 -29.9375 C 59.921875 -32.289062 60.765625 -35.007812 60.765625 -38.09375 Z M 60.765625 -38.09375 "/></g></g></g><g fill="#ffffff" fill-opacity="1"><g transform="translate(173.78104, 493.485447)"><g><path d="M 73.328125 -125.5 L 45.359375 -125.5 L 45.359375 -96.65625 L 71.5625 -96.65625 L 71.5625 -66.28125 L 45.359375 -66.28125 L 45.359375 -31.703125 L 75.53125 -31.703125 L 75.53125 0 L 4.84375 0 L 4.84375 -157.21875 L 73.328125 -157.21875 Z M 73.328125 -125.5 "/></g></g></g><g fill="#ffffff" fill-opacity="1"><g transform="translate(251.268565, 493.485447)"><g><path d="M 53.0625 -160.515625 C 68.914062 -160.515625 80.695312 -157.320312 88.40625 -150.9375 C 96.113281 -144.550781 99.96875 -133.066406 99.96875 -116.484375 L 99.96875 -99.296875 L 59.453125 -99.296875 L 59.453125 -124.40625 C 59.453125 -128.070312 58.898438 -130.601562 57.796875 -132 C 56.691406 -133.394531 55.113281 -134.09375 53.0625 -134.09375 C 47.925781 -134.09375 45.359375 -130.421875 45.359375 -123.078125 L 45.359375 -35.453125 C 45.359375 -31.628906 46.019531 -28.726562 47.34375 -26.75 C 48.664062 -24.769531 50.570312 -23.78125 53.0625 -23.78125 C 55.851562 -23.78125 57.832031 -24.660156 59 -26.421875 C 60.175781 -28.179688 60.765625 -30.972656 60.765625 -34.796875 L 60.765625 -62.3125 L 52.40625 -62.3125 L 52.40625 -84.765625 L 101.28125 -84.765625 L 101.28125 0 L 74.859375 0 L 71.78125 -11.015625 C 68.257812 -6.316406 63.816406 -2.753906 58.453125 -0.328125 C 53.097656 2.085938 47.335938 3.296875 41.171875 3.296875 C 28.253906 3.296875 18.96875 -1.066406 13.3125 -9.796875 C 7.664062 -18.535156 4.84375 -29.066406 4.84375 -41.390625 L 4.84375 -112.953125 C 4.84375 -129.691406 8.878906 -141.800781 16.953125 -149.28125 C 25.023438 -156.769531 37.0625 -160.515625 53.0625 -160.515625 Z M 53.0625 -160.515625 "/></g></g></g><g fill="#ffffff" fill-opacity="1"><g transform="translate(357.373618, 493.485447)"><g><path d="M 73.328125 -125.5 L 45.359375 -125.5 L 45.359375 -96.65625 L 71.5625 -96.65625 L 71.5625 -66.28125 L 45.359375 -66.28125 L 45.359375 -31.703125 L 75.53125 -31.703125 L 75.53125 0 L 4.84375 0 L 4.84375 -157.21875 L 73.328125 -157.21875 Z M 73.328125 -125.5 "/></g></g></g><g fill="#ffffff" fill-opacity="1"><g transform="translate(434.861143, 493.485447)"><g><path d="M 62.3125 -79.046875 L 62.75 -79.046875 L 62.75 -157.21875 L 97.109375 -157.21875 L 97.109375 0 L 62.75 0 L 39.859375 -87.859375 L 39.1875 -87.859375 L 39.1875 0 L 4.84375 0 L 4.84375 -157.21875 L 39.1875 -157.21875 Z M 62.3125 -79.046875 "/></g></g></g><g fill="#ffffff" fill-opacity="1"><g transform="translate(536.783642, 493.485447)"><g/></g></g><g fill="#ffffff" fill-opacity="1"><g transform="translate(589.616041, 493.485447)"><g><path d="M 53.953125 -160.515625 C 69.210938 -160.515625 80.582031 -156.476562 88.0625 -148.40625 C 95.550781 -140.332031 99.296875 -129.910156 99.296875 -117.140625 L 99.296875 -94.015625 L 58.796875 -94.015625 L 58.796875 -124.84375 C 58.796875 -127.925781 58.28125 -130.238281 57.25 -131.78125 C 56.21875 -133.320312 54.3125 -134.09375 51.53125 -134.09375 C 49.175781 -134.09375 47.554688 -133.0625 46.671875 -131 C 45.796875 -128.945312 45.359375 -126.75 45.359375 -124.40625 L 45.359375 -32.8125 C 45.359375 -30.457031 45.796875 -28.253906 46.671875 -26.203125 C 47.554688 -24.148438 49.175781 -23.125 51.53125 -23.125 C 54.3125 -23.125 56.21875 -24.003906 57.25 -25.765625 C 58.28125 -27.523438 58.796875 -30.238281 58.796875 -33.90625 L 58.796875 -67.8125 L 99.296875 -67.8125 L 99.296875 -40.953125 C 99.296875 -32.878906 97.609375 -25.46875 94.234375 -18.71875 C 90.859375 -11.96875 85.6875 -6.609375 78.71875 -2.640625 C 71.75 1.316406 63.195312 3.296875 53.0625 3.296875 C 37.351562 3.296875 25.390625 -0.441406 17.171875 -7.921875 C 8.953125 -15.410156 4.84375 -27.519531 4.84375 -44.25 L 4.84375 -112.953125 C 4.84375 -128.515625 9.023438 -140.332031 17.390625 -148.40625 C 25.765625 -156.476562 37.953125 -160.515625 53.953125 -160.515625 Z M 53.953125 -160.515625 "/></g></g></g><g fill="#ffffff" fill-opacity="1"><g transform="translate(691.551778, 493.485447)"><g/></g></g><g fill="#ffffff" fill-opacity="1"><g transform="translate(744.384177, 493.485447)"><g/></g></g><g fill="#ffffff" fill-opacity="1"><g transform="translate(797.216576, 493.485447)"><g/></g></g><g fill="#ffffff" fill-opacity="1"><g transform="translate(850.078902, 493.485447)"><g><path d="M 69.359375 -65.390625 L 69.796875 -65.390625 L 79.265625 -157.21875 L 133.875 -157.21875 L 133.875 0 L 99.53125 0 L 99.53125 -116.703125 L 99.078125 -116.703125 L 82.125 0 L 56.59375 0 L 39.640625 -116.703125 L 39.1875 -116.703125 L 39.1875 0 L 4.84375 0 L 4.84375 -157.21875 L 58.796875 -157.21875 Z M 69.359375 -65.390625 "/></g></g></g><g fill="#ffffff" fill-opacity="1"><g transform="translate(988.763935, 493.485447)"><g><path d="M 69.359375 -65.390625 L 69.796875 -65.390625 L 79.265625 -157.21875 L 133.875 -157.21875 L 133.875 0 L 99.53125 0 L 99.53125 -116.703125 L 99.078125 -116.703125 L 82.125 0 L 56.59375 0 L 39.640625 -116.703125 L 39.1875 -116.703125 L 39.1875 0 L 4.84375 0 L 4.84375 -157.21875 L 58.796875 -157.21875 Z M 69.359375 -65.390625 "/></g></g></g><g fill="#ffffff" fill-opacity="1"><g transform="translate(1127.448968, 493.485447)"><g><path d="M 73.328125 -125.5 L 45.359375 -125.5 L 45.359375 -96.65625 L 71.5625 -96.65625 L 71.5625 -66.28125 L 45.359375 -66.28125 L 45.359375 -31.703125 L 75.53125 -31.703125 L 75.53125 0 L 4.84375 0 L 4.84375 -157.21875 L 73.328125 -157.21875 Z M 73.328125 -125.5 "/></g></g></g><g fill="#ffffff" fill-opacity="1"><g transform="translate(1204.936494, 493.485447)"><g><path d="M 62.3125 -79.046875 L 62.75 -79.046875 L 62.75 -157.21875 L 97.109375 -157.21875 L 97.109375 0 L 62.75 0 L 39.859375 -87.859375 L 39.1875 -87.859375 L 39.1875 0 L 4.84375 0 L 4.84375 -157.21875 L 39.1875 -157.21875 Z M 62.3125 -79.046875 "/></g></g></g><g fill="#ffffff" fill-opacity="1"><g transform="translate(1306.858993, 493.485447)"><g><path d="M 88.953125 -125.5 L 64.953125 -125.5 L 64.953125 0 L 24.4375 0 L 24.4375 -125.5 L 0.4375 -125.5 L 0.4375 -157.21875 L 88.953125 -157.21875 Z M 88.953125 -125.5 "/></g></g></g><g clip-path="url(#c802bdbff3)"><g clip-path="url(#c20c618ed8)"><path fill="#ffffff" d="M 693.4375 338.046875 L 849.378906 338.046875 L 849.378906 493.988281 L 693.4375 493.988281 Z M 693.4375 338.046875 " fill-opacity="1" fill-rule="nonzero"/></g></g><path stroke-linecap="round" transform="matrix(0.481294, -0.00131426, 0.00131426, 0.481294, 714.898098, 413.851079)" fill="none" stroke-linejoin="miter" d="M 4.500987 4.501521 L 117.566945 4.501855 " stroke="#000000" stroke-width="9" stroke-opacity="1" stroke-miterlimit="4"/><path stroke-linecap="round" transform="matrix(-0.0786578, 0.474825, -0.474825, -0.0786578, 781.424607, 369.608058)" fill="none" stroke-linejoin="miter" d="M 4.499737 4.500762 L 95.676496 4.500992 " stroke="#000000" stroke-width="9" stroke-opacity="1" stroke-miterlimit="4"/><g clip-path="url(#78142c3fdf)"><g clip-path="url(#15f5054f63)"><g clip-path="url(#6c8a19c660)"><g clip-path="url(#0aff4d5239)"><g clip-path="url(#0619f7ffca)"><path fill="#8c52ff" d="M 547.058594 374.070312 C 546.808594 374.972656 546.46875 375.855469 546.039062 376.6875 C 545.617188 377.527344 545.097656 378.320312 544.519531 379.058594 C 543.9375 379.796875 543.285156 380.480469 542.589844 381.109375 C 541.183594 382.359375 539.597656 383.382812 537.921875 384.21875 C 536.25 385.054688 534.492188 385.703125 532.699219 386.207031 C 534.449219 385.578125 536.164062 384.855469 537.804688 383.984375 C 539.4375 383.113281 540.988281 382.089844 542.363281 380.855469 C 543.738281 379.632812 544.925781 378.1875 545.808594 376.566406 C 546.691406 374.949219 547.261719 373.15625 547.539062 371.316406 C 547.46875 372.246094 547.300781 373.167969 547.058594 374.070312 Z M 494.757812 381.863281 C 493.1875 380.851562 491.71875 379.660156 490.460938 378.261719 C 489.832031 377.5625 489.261719 376.8125 488.761719 376.015625 C 488.265625 375.214844 487.839844 374.371094 487.507812 373.492188 C 487.175781 372.617188 486.933594 371.703125 486.78125 370.78125 C 486.640625 369.855469 486.574219 368.921875 486.605469 367.988281 C 486.679688 369.847656 487.050781 371.691406 487.753906 373.398438 C 488.453125 375.105469 489.476562 376.667969 490.710938 378.035156 C 491.941406 379.414062 493.375 380.597656 494.902344 381.644531 C 496.433594 382.683594 498.058594 383.59375 499.734375 384.40625 C 498.007812 383.710938 496.328125 382.875 494.757812 381.863281 Z M 545.128906 368.425781 C 542.96875 368.546875 541.308594 369.160156 539.695312 369.871094 C 539.925781 372.152344 540.246094 374.605469 540.671875 377.25 L 540.675781 377.25 C 540.675781 377.25 532.523438 382.128906 516.4375 381.25 C 500.351562 380.371094 492.78125 374.636719 492.78125 374.636719 C 493.515625 371.988281 494.109375 369.527344 494.59375 367.238281 C 494.410156 367.132812 494.25 367.039062 494.101562 366.945312 C 494.101562 366.945312 494.097656 366.945312 494.097656 366.945312 C 492.714844 366.171875 491.238281 365.554688 489.316406 365.378906 C 483.765625 364.878906 483.855469 368.40625 483.855469 368.40625 C 483.949219 387.332031 515.992188 389.417969 515.992188 389.417969 C 515.992188 389.417969 548.070312 390.832031 550.226562 372.027344 C 550.226562 372.027344 550.75 368.113281 545.128906 368.425781 " fill-opacity="1" fill-rule="nonzero"/></g></g></g></g></g><g clip-path="url(#f1e14a351d)"><g clip-path="url(#5cbec1c773)"><g clip-path="url(#1a11fb4817)"><path fill="#ffffff" d="M 540.675781 377.25 C 540.675781 377.25 532.523438 382.128906 516.4375 381.25 C 500.351562 380.371094 492.78125 374.636719 492.78125 374.636719 C 493.515625 371.988281 494.109375 369.527344 494.59375 367.238281 C 494.703125 367.300781 494.824219 367.371094 494.949219 367.441406 C 498.007812 369.144531 505.203125 372.347656 516.890625 372.984375 C 529.058594 373.648438 536.6875 371.019531 539.679688 369.699219 C 539.683594 369.757812 539.691406 369.8125 539.695312 369.871094 C 539.925781 372.152344 540.246094 374.605469 540.671875 377.25 L 540.675781 377.25 " fill-opacity="1" fill-rule="nonzero"/></g></g></g><g clip-path="url(#c1036cd0a6)"><g clip-path="url(#c685eda3d8)"><g clip-path="url(#23d5ea242c)"><path fill="#ffffff" d="M 547.539062 371.316406 C 547.46875 372.246094 547.300781 373.167969 547.058594 374.070312 C 546.808594 374.972656 546.46875 375.855469 546.039062 376.6875 C 545.617188 377.527344 545.097656 378.320312 544.519531 379.058594 C 543.9375 379.796875 543.285156 380.480469 542.589844 381.109375 C 541.183594 382.359375 539.597656 383.382812 537.921875 384.21875 C 536.25 385.054688 534.492188 385.703125 532.699219 386.207031 C 534.449219 385.578125 536.164062 384.855469 537.804688 383.984375 C 539.4375 383.113281 540.988281 382.089844 542.363281 380.855469 C 543.738281 379.632812 544.925781 378.1875 545.808594 376.566406 C 546.691406 374.949219 547.261719 373.15625 547.539062 371.316406 " fill-opacity="1" fill-rule="nonzero"/></g></g></g><g clip-path="url(#17fc5e0ecf)"><g clip-path="url(#0048895f91)"><g clip-path="url(#36035229dd)"><path fill="#ffffff" d="M 499.734375 384.40625 C 498.007812 383.710938 496.328125 382.875 494.757812 381.863281 C 493.1875 380.851562 491.71875 379.660156 490.460938 378.261719 C 489.832031 377.5625 489.261719 376.8125 488.761719 376.015625 C 488.265625 375.214844 487.839844 374.371094 487.507812 373.492188 C 487.175781 372.617188 486.933594 371.703125 486.78125 370.78125 C 486.640625 369.855469 486.574219 368.921875 486.605469 367.988281 C 486.679688 369.847656 487.050781 371.691406 487.753906 373.398438 C 488.453125 375.105469 489.476562 376.667969 490.710938 378.035156 C 491.941406 379.414062 493.375 380.597656 494.902344 381.644531 C 496.433594 382.683594 498.058594 383.59375 499.734375 384.40625 " fill-opacity="1" fill-rule="nonzero"/></g></g></g><g clip-path="url(#68694318bd)"><g clip-path="url(#30c7a4ade0)"><g clip-path="url(#420b3acd01)"><path fill="#8c52ff" d="M 539.679688 369.699219 C 536.6875 371.019531 529.058594 373.648438 516.890625 372.984375 C 505.203125 372.347656 498.007812 369.144531 494.949219 367.441406 C 494.832031 367.367188 494.714844 367.300781 494.59375 367.230469 C 498.859375 346.976562 494.25 339.890625 495.066406 333.285156 C 495.8125 327.253906 519.285156 329.113281 519.285156 329.113281 C 519.285156 329.113281 542.820312 329.824219 542.90625 335.894531 C 543 342.554688 537.640625 349.09375 539.679688 369.699219 " fill-opacity="1" fill-rule="nonzero"/></g></g></g><g clip-path="url(#3519bf26ee)"><g clip-path="url(#9261eca4eb)"><g clip-path="url(#ca13db76a2)"><path fill="#8c52ff" d="M 494.59375 367.230469 C 494.433594 367.132812 494.269531 367.039062 494.101562 366.949219 L 494.59375 367.230469 " fill-opacity="1" fill-rule="nonzero"/></g></g></g></svg>